<svg xmlns="http://www.w3.org/2000/svg" xmlns:xlink="http://www.w3.org/1999/xlink" version="1.1" id="Layer_1" x="0px" y="0px" viewBox="30 -25 500 416.7" xml:space="preserve"><style type="text/css">
	.st0{fill:#d2d2d7;}
	.st1{fill:#E6E6EB;}
	.st2{fill:#C3C3C8;}
	.st3{fill:#F0F0FA;}
	.st4{clip-path:url(#SVGID_4_);fill:#E6E6EB;}
	.st5{clip-path:url(#SVGID_8_);fill:#E6E6EB;}
	.st6{clip-path:url(#SVGID_12_);fill:#E6E6EB;}
	.st7{fill:#757575;}
	.st8{clip-path:url(#SVGID_14_);fill:#C3C3C8;}
	.st9{clip-path:url(#SVGID_16_);fill:#C3C3C8;}
	.st10{clip-path:url(#SVGID_18_);fill:#C3C3C8;}
	.st11{fill:#555555;}
	.st12{clip-path:url(#SVGID_20_);fill:#E6E6EB;}
	.st13{clip-path:url(#SVGID_22_);fill:#E6E6EB;}
	.st14{clip-path:url(#SVGID_24_);fill:#E6E6EB;}
	.st15{clip-path:url(#SVGID_26_);fill:#E6E6EB;}
	.st16{clip-path:url(#SVGID_28_);fill:#E6E6EB;}
	.st17{clip-path:url(#SVGID_30_);fill:#E6E6EB;}
	.st18{clip-path:url(#SVGID_32_);fill:#E6E6EB;}
	.st19{clip-path:url(#SVGID_34_);fill:#C3C3C8;}
	.st20{clip-path:url(#SVGID_36_);fill:#C3C3C8;}
	.st21{clip-path:url(#SVGID_38_);fill:#C3C3C8;}
	.st22{clip-path:url(#SVGID_40_);fill:#C3C3C8;}
	.st23{clip-path:url(#SVGID_42_);fill:#C3C3C8;}
	.st24{clip-path:url(#SVGID_44_);fill:#C3C3C8;}
	.st25{clip-path:url(#SVGID_46_);fill:#C3C3C8;}
</style><g><polygon class="st0" points="132.5 285.8 127.5 289.3 129.4 294.8 124.7 291.4 119.8 295.1 121.5 289.3 116.8 285.9 122.8 285.8 124.6 280.1 126.5 285.8 "/><polygon class="st0" points="36.7 115.9 34.6 111.6 30 112.3 33.3 109.2 31.3 104.9 35.3 107 38.6 103.9 37.9 108.5 42 110.6 37.4 111.3 "/><polygon class="st0" points="522.8 100 516.2 93.2 507.6 97.4 511.9 88.9 505.1 82 514.5 83.7 519.1 75.1 520.5 84.5 530 86.1 521.4 90.5 "/><polygon class="st0" points="464 -17.4 468.2 -14.2 472.6 -17.4 470.8 -12.3 475 -9.2 469.7 -9.3 468.2 -4.2 466.4 -9.3 461.2 -9.3 465.5 -12.5 "/><polygon class="st0" points="84.3 15.5 88.6 18.7 93 15.6 91.3 20.6 95.6 23.7 90.3 23.7 88.5 28.8 87 23.7 81.7 23.7 85.8 20.6 "/><polygon class="st0" points="419.1 125.3 423.5 128.4 427.8 125.3 426.1 130.4 430.4 133.6 425.1 133.6 423.3 138.4 421.8 133.4 416.5 133.4 420.7 130.4 "/><polygon class="st0" points="496.4 289.1 493.2 288.7 491.8 291.8 491.1 288.6 488.1 288.3 490.9 286.6 490.2 283.3 492.5 285.7 495.5 284 494.1 287 "/><polygon class="st0" points="328.7 259.8 325.7 259.5 324.2 262.4 323.5 259.2 320.4 258.9 323.2 257.1 322.5 253.9 325 256.3 327.8 254.5 326.4 257.5 "/><polygon class="st0" points="307 -2.6 303.7 -2.9 302.4 0 301.7 -3.2 298.5 -3.5 301.3 -5.3 300.6 -8.5 303.1 -6.1 305.9 -7.9 304.5 -4.9 "/></g><g><animateTransform attributeName="transform" type="translate" from="0 0" to="0 30" begin="0;animate2.end" dur="2s" id="animate1"/><animateTransform attributeName="transform" type="translate" from="0 30" to="0 0" begin="animate1.end" dur="2s" id="animate2"/><path class="st1" d="M164.3 206.3c0 0 14.8 4.9 18.5 8.5 2.6 2.6 1.9 8.1-3.5 7.4 -2.6-0.4-5.6-0.7-7-0.8 -0.4 0-0.6 0.4-0.4 0.6 1.8 2.6 7.9 11.4 6.3 13.5 -1.9 2.2-4.7 2.5-9.2-2.8 1.1 5.2 2.2 7.5 0.7 10.6 -0.7 1.4-4.7 2.5-6.3-3.8 -0.7-2.5-1.8-4.9-1.8-4.9s-0.6 4.5-2.5 7.2c-1.8 2.6-6.8 2.1-6-2.6 0.8-5.8 1.8-8.9 1.8-8.9s-1.4 2.9-2.9 5.4c-1.5 2.5-7.5 2.8-5.2-4.2 2.5-7 3.9-12.1 3.9-12.1L164.3 206.3z"/><path class="st2" d="M292.8 80.8l5.4 8.1c6.3-2.5 9.6-2.6 11.8-1.8 0.8-1.8 1.8-3.3 2.8-5.2C304.4 76.7 292.8 80.8 292.8 80.8z"/><path class="st2" d="M227.8 26.6l-0.6-2.5c0 0 13.6-15.5 24.4-10.2 10.7 5.4 9.3 14.2 3.3 18.7 -6 4.2-2.9-0.8-2.9-0.8s8.6-8.8-0.7-14.6C243.5 12.3 233.1 20.9 227.8 26.6z"/><path class="st2" d="M316.1 117.7l-62.3-91.8c-2.6-4-8.1-5.2-12.1-2.2l-91.9 62.3c-4 2.6-5.2 8.1-2.2 12.1l44.4 65.6 -0.4 0.1c-2.8 1.9-3.5 5.6-1.5 8.5l0.4 0.6c-7.2 4.7-24.1 11.1-40.3-18.1 -25.3-45.8 3.3-77 8.6-81.5 -2.2-0.6-1.5-0.1-4.5-1.4 -15.3 9.6-31.8 47.8-7.9 89.3 17 29.7 41.1 25.1 51 21.6l0.1 0.1c1.9 2.8 5.6 3.5 8.5 1.5l0.4-0.1 3.9 5.6c2.6 4 8.1 5.2 12.1 2.2l91.8-62.4C317.9 127.3 319 121.7 316.1 117.7z"/><g><g><path id="SVGID_1_" class="st3" d="M153.7 107.2c-31.5 43.6-11.8 97.9-4.7 113.9 1.3 2.6 4.2 4 6.8 2.9 1.9-0.7 4-1.4 6.3-2.1 2.8-0.8 4-4 2.9-6.7l0 0c-0.8-2.1 0-4.5 2.1-5.3l3.3-1.4c-19.6-53.2 28.4-83.3 28.4-83.3l-18.4-19.8C173 97.5 160.1 98.5 153.7 107.2z"/></g><g><g><defs><path id="SVGID_2_" d="M182.4 117.2c-53 8.7-77.4 61.2-83.6 77.5 -1 2.8 0.2 5.8 2.7 7 1.9 0.9 3.9 1.9 6 2.9 2.6 1.4 5.7 0 6.8-2.6l0 0c0.8-2.1 3.1-3.1 5.1-2.2l3.3 1.4c23.5-51.6 78.9-39 78.9-39l0.6-27.1C202.9 124 193 115.4 182.4 117.2z"/></defs><clipPath id="SVGID_4_"><use xlink:href="#SVGID_2_"/></clipPath><rect x="153.2" y="126.7" transform="matrix(0.3811 -0.9245 0.9245 0.3811 -39.2738 235.0988)" class="st4" width="5.4" height="40.4"/></g></g><g><g><defs><path id="SVGID_6_" d="M153.7 107.2c-31.5 43.6-11.8 97.9-4.7 113.9 1.3 2.6 4.2 4 6.8 2.9 1.9-0.7 4-1.4 6.3-2.1 2.8-0.8 4-4 2.9-6.7l0 0c-0.8-2.1 0-4.5 2.1-5.3l3.3-1.4c-19.6-53.2 28.4-83.3 28.4-83.3l-18.4-19.8C173 97.5 160.1 98.5 153.7 107.2z"/></defs><clipPath id="SVGID_8_"><use xlink:href="#SVGID_6_"/></clipPath><path class="st5" d="M156.9 169.1L156.9 169.1c-0.4 2.2-2.2 3.8-4.5 3.5l-30.6-3.5 1.1-8.1 30.4 3.5C155.6 164.6 157.3 166.9 156.9 169.1z"/></g></g><g><g><defs><path id="SVGID_10_" d="M218.9 275.2c-6.3-53.4-57.5-80.1-73.5-87 -2.7-1.1-5.9-0.1-7.1 2.5 -0.9 1.9-2 3.8-3.2 5.9 -1.5 2.5-0.3 5.8 2.2 6.9l0 0c2 1 2.9 3.2 2.1 5.3l-1.6 3.3c50.5 25.9 35.5 80.7 35.5 80.7l27 1.9C211.1 295.4 220.1 286 218.9 275.2z"/></defs><clipPath id="SVGID_12_"><use xlink:href="#SVGID_10_"/></clipPath><rect x="132.8" y="198.6" transform="matrix(0.9318 -0.363 0.363 0.9318 -63.532 69.656)" class="st6" width="41.5" height="10.6"/></g></g></g><path class="st7" d="M316.1 117.7l-14.2-20.9c1.9-1.9 2.2-5.3 0.7-7.5l-7.2-10.7c-1.5-2.5-4.7-3.3-7.4-2.1L253.8 26c-2.6-4-8.1-5.2-12.1-2.2l-45.4 30.8 72.3 106.1 45.4-30.8C317.9 127.3 319 121.7 316.1 117.7z"/><path class="st3" d="M229.2 50.1l-49.6 33.7c-7.2 4.9-9.6 13.9-5.6 20.1l56.4 86.8 49.6-12.3 31.3-41.4 -61.7-84.7C245.5 46.2 236.4 45.1 229.2 50.1z"/><rect x="193.1" y="94.4" transform="matrix(0.8271 -0.562 0.562 0.8271 -19.5194 132.2566)" class="st1" width="24.2" height="7"/><path class="st2" d="M348.9 81.1c0 0-0.8 15.5 1.1 20.2 1.4 3.3 6.8 4.7 8.1-0.7 0.7-2.6 1.4-5.6 1.8-6.8 0-0.4 0.6-0.4 0.7-0.1 1.8 2.6 7.8 11.6 10.2 10.7 2.8-0.8 4-3.5 0.7-9.6 4.5 2.8 6.1 4.9 9.5 4.6 1.5-0.1 4-3.5-1.1-7.2 -1.9-1.5-3.9-3.5-3.9-3.5s4.5 1.1 7.5 0.4c3.2-0.7 4.5-5.6-0.1-6.5 -5.6-1.3-8.9-1.5-8.9-1.5s3.3-0.1 6.1-0.7 5.4-6-2.1-6.3c-7.5-0.4-12.7-0.8-12.7-0.8L348.9 81.1z"/><g><g><path id="SVGID_3_" class="st1" d="M260.8 34.4C312.9 21.2 356 59.5 368.6 72c2.1 2.1 2.1 5.3 0.4 7.5 -1.3 1.5-2.8 3.3-4.5 5.2 -1.9 2.2-5.3 2.2-7.2 0.4l0 0c-1.5-1.5-4-1.5-5.6 0l-2.6 2.6c-42.3-38-87.9-4.2-87.9-4.2l-11.6-24.7C244.6 48.9 250.1 37.2 260.8 34.4z"/></g><g><g><defs><path id="SVGID_13_" d="M333.1 67c-51.6 14.6-95.9-22.5-108.7-34.6 -2.1-2.1-2.3-5.3-0.5-7.5 1.2-1.5 2.7-3.4 4.2-5.2 1.9-2.4 5.3-2.4 7.2-0.5l0 0c1.7 1.5 4.1 1.5 5.6-0.2l2.6-2.7c43.4 36.7 87.9 1.8 87.9 1.8l12.3 24.3C348.8 52.2 343.7 63.8 333.1 67z"/></defs><clipPath id="SVGID_14_"><use xlink:href="#SVGID_13_"/></clipPath><rect x="293.9" y="31.1" transform="matrix(-0.9999 1.381420e-02 -1.381420e-02 -0.9999 593.9629 98.4075)" class="st8" width="5.4" height="40.4"/></g></g><g><g><defs><path id="SVGID_15_" d="M260.8 34.4C312.9 21.2 356 59.5 368.6 72c2.1 2.1 2.1 5.3 0.4 7.5 -1.3 1.5-2.8 3.3-4.5 5.2 -1.9 2.2-5.3 2.2-7.2 0.4l0 0c-1.5-1.5-4-1.5-5.6 0l-2.6 2.6c-42.3-38-87.9-4.2-87.9-4.2l-11.6-24.7C244.6 48.9 250.1 37.2 260.8 34.4z"/></defs><clipPath id="SVGID_16_"><use xlink:href="#SVGID_15_"/></clipPath><path class="st9" d="M316.8 60.3L316.8 60.3c2.1 0.6 4.5-0.7 4.9-2.8l8.1-29.7 -7.9-1.9 -7.9 29.5C313.3 57.5 314.7 59.8 316.8 60.3z"/></g></g><g><g><defs><path id="SVGID_17_" d="M379.5-22.1c17 50.9-18.1 96.8-29.5 110.2 -1.9 2.2-5.1 2.5-7.5 0.9 -1.6-1.1-3.5-2.5-5.4-4 -2.4-1.7-2.7-5.1-1-7.2l0 0c1.4-1.7 1.2-4.2-0.5-5.6l-2.8-2.5c34.8-45-2.3-88-2.3-88l23.7-13.4C363.9-37.2 376-32.6 379.5-22.1z"/></defs><clipPath id="SVGID_18_"><use xlink:href="#SVGID_17_"/></clipPath><rect x="329.8" y="64.7" transform="matrix(-0.6806 0.7326 -0.7326 -0.6806 640.5086 -139.1763)" class="st10" width="41.5" height="10.6"/></g></g></g><circle class="st11" cx="203.1" cy="88.7" r="3.3"/><circle class="st11" cx="195" cy="94.8" r="1.8"/><rect x="198.6" y="104" transform="matrix(0.8271 -0.562 0.562 0.8271 -22.7063 135.5296)" class="st1" width="20.6" height="1.3"/><rect x="200.3" y="106.6" transform="matrix(0.8271 -0.562 0.562 0.8271 -23.8369 136.8859)" class="st1" width="20.6" height="1.3"/><path class="st1" d="M249.6 52.4c-4.2-6.1-13.4-7-20.6-2.1l-24.8 16.9 75.6 111.3 0 0 31.3-41.4L249.6 52.4z"/><rect x="202" y="108.9" transform="matrix(0.8271 -0.562 0.562 0.8271 -24.8467 138.2629)" class="st2" width="20.6" height="1.3"/><rect x="203.7" y="111.4" transform="matrix(0.8271 -0.562 0.562 0.8271 -25.9716 139.653)" class="st1" width="20.6" height="1.3"/><circle class="st2" cx="259.9" cy="106.3" r="6.7"/><circle class="st2" cx="259.9" cy="106.3" r="3.5"/><path class="st1" d="M270.3 115.3c0 0-15.2 14.8-20.8 18.7 -6 4-25.6 13-25.6 13l-1.8-2.6 23.7-16.2 22.7-15.5L270.3 115.3z"/><path class="st1" d="M276.1 124c0 0-15.2 14.8-20.8 18.7 -6 4-25.6 13-25.6 13l-1.8-2.6 23.7-16.2 22.7-15.5L276.1 124z"/><path class="st1" d="M282.1 132.5c0 0-15.2 14.8-20.8 18.7 -6 4-25.6 13-25.6 13l-1.8-2.6 23.7-16.2 22.7-15.5L282.1 132.5z"/><rect x="236.4" y="72.6" transform="matrix(0.8271 -0.562 0.562 0.8271 -3.1842 151.5784)" class="st2" width="16.7" height="16.7"/><rect x="225.8" y="67.5" transform="matrix(0.8271 -0.562 0.562 0.8271 1.9737 145.2646)" class="st2" width="22.7" height="3.9"/><path class="st1" d="M230.6 16.3l-3.2 2.1L207-11.4l3.2-2.1c3.2-2.1 7.2-1.3 9.3 1.8l12.7 18.8C234.5 10 233.5 14.2 230.6 16.3z"/><path class="st3" d="M148 72.6l3.2-2.1 -20.5-29.9 -3.2 2.2c-3.2 2.1-3.9 6.3-1.8 9.3l12.7 18.8C140.6 73.8 144.8 74.5 148 72.6z"/><circle class="st3" cx="179.2" cy="30.2" r="51.7"/><path class="st1" d="M150.2-12.5L208.3 73c23.5-16 29.7-48.2 13.6-71.7S173.7-28.4 150.2-12.5z"/><path class="st11" d="M182.9-10.9l-43 29.2c-3.3 11.4-1.8 24.2 5.4 34.8 12.8 18.8 34.1 17.3 52.9 4.6s28.1-32 15.3-50.8C206-3.8 194.6-9.9 182.9-10.9z"/><g><g><path id="SVGID_5_" class="st3" d="M279.9 177.6l-47.8 11.8 19.6 64.3c0.6 2.5 1.3 4.7 2.5 6.8l33.7 60.2 36.4-20.6 -35.1-55.7c-1.1-1.5-1.5-3.3-1.9-5.2L279.9 177.6z"/></g><g><g><defs><path id="SVGID_19_" d="M268.4 171l-38.7 30.5 44.5 50.5c1.4 2 3.1 3.8 5.1 5.2l55.6 40.9 24.6-33.7 -55-36.3c-1.7-1.1-2.8-2.4-3.8-3.9L268.4 171z"/></defs><clipPath id="SVGID_20_"><use xlink:href="#SVGID_19_"/></clipPath><rect x="255.9" y="167.4" transform="matrix(-0.2111 -0.9775 0.9775 -0.2111 116.7409 496.1593)" class="st12" width="5.4" height="67.1"/></g></g><g><g><defs><path id="SVGID_21_" d="M279.9 177.6l-47.8 11.8 19.6 64.3c0.6 2.5 1.3 4.7 2.5 6.8l33.7 60.2 36.4-20.6 -35.1-55.7c-1.1-1.5-1.5-3.3-1.9-5.2L279.9 177.6z"/></defs><clipPath id="SVGID_22_"><use xlink:href="#SVGID_21_"/></clipPath><path class="st13" d="M271.5 220.6L271.5 220.6c0.7 3.2-0.4 6.1-2.5 6.7l-29.7 8.5 -2.8-11.4 29.4-8.5C268.2 215.2 270.7 217.3 271.5 220.6z"/></g></g><g><g><defs><path id="SVGID_23_" d="M365.4 320.5l16.1-46.5 -64.7-18.4c-2.4-0.9-4.7-1.6-7.1-1.7l-68.8-4.5 -2.6 41.7 65.9 0.8c1.9-0.1 3.6 0.6 5.4 1.2L365.4 320.5z"/></defs><clipPath id="SVGID_24_"><use xlink:href="#SVGID_23_"/></clipPath><rect x="255.8" y="266.9" transform="matrix(0.8788 -0.4772 0.4772 0.8788 -95.4815 168.3656)" class="st14" width="55.8" height="10.6"/></g></g><g><g><defs><path id="SVGID_25_" d="M322.9 299.8l20-45 -62.9-24c-2.2-1.1-4.5-2-6.8-2.2L205 218.4l-6.2 41.3 65.5 6.4c1.9 0.1 3.7 0.8 5.3 1.6L322.9 299.8z"/></defs><clipPath id="SVGID_26_"><use xlink:href="#SVGID_25_"/></clipPath><rect x="243.6" y="248.2" transform="matrix(0.8983 -0.4394 0.4394 0.8983 -81.8542 144.6265)" class="st15" width="55.9" height="1.9"/></g></g></g><g><g><path id="SVGID_7_" class="st3" d="M330.8 309.5l-62 39.6 -4.2-6.7c-6.8-10.7-2.1-26 10.7-34.3l38.9-24.8L330.8 309.5z"/></g><g><g><defs><path id="SVGID_27_" d="M300.2 361.6l-9.8-72.9 7.8-1c12.6-1.8 24.4 9 26.6 24.1l6.2 45.6L300.2 361.6z"/></defs><clipPath id="SVGID_28_"><use xlink:href="#SVGID_27_"/></clipPath><rect x="257.8" y="322.4" transform="matrix(0.8429 -0.5381 0.5381 0.8429 -128.3497 212.0307)" class="st16" width="82.3" height="6.8"/></g></g><g><g><defs><path id="SVGID_29_" d="M288.3 361.6l-9.7-72.9 7.8-1c12.6-1.8 24.4 9 26.6 24.1l6.2 45.6L288.3 361.6z"/></defs><clipPath id="SVGID_30_"><use xlink:href="#SVGID_29_"/></clipPath><rect x="251.8" y="320.8" transform="matrix(0.8429 -0.5381 0.5381 0.8429 -127.1782 208.2109)" class="st17" width="82.3" height="2.2"/></g></g><g><g><defs><path id="SVGID_31_" d="M330.8 309.5l-62 39.6 -4.2-6.7c-6.8-10.7-2.1-26 10.7-34.3l38.9-24.8L330.8 309.5z"/></defs><clipPath id="SVGID_32_"><use xlink:href="#SVGID_31_"/></clipPath><path class="st18" d="M282.1 281.2c-13.4 8.5-20.2 21.3-15.6 28.7 4.7 7.4 19.4 6.5 32.5-2.1 13.4-8.5 20.2-21.3 15.6-28.7C309.8 271.9 295.2 272.7 282.1 281.2zM297.5 305.9c-11.1 7-23.3 7.9-27.3 1.8 -3.9-6.1 1.9-16.9 13-24 11.1-7 23.3-7.9 27.3-1.8C314.5 287.9 308.7 298.6 297.5 305.9z"/></g></g></g><g><g><path id="SVGID_9_" class="st1" d="M279.7 178.3l29.9-39.1 46.1 16.9c2.2 0.8 4.2 2.2 6.1 3.9l55.4 48.3 -28.1 31.1 -45.1-45.7c-1.3-1.4-2.8-2.2-4.6-2.9L279.7 178.3z"/></g><g><g><defs><path id="SVGID_33_" d="M347.3 189.3l-47.7-12.6 -1.9-49c-0.1-2.4 0.5-4.7 1.3-7.2L322.6 51 362 65.1l-25 59.2c-0.8 1.7-1 3.5-1.1 5.3L347.3 189.3z"/></defs><clipPath id="SVGID_34_"><use xlink:href="#SVGID_33_"/></clipPath><rect x="314.4" y="127.5" transform="matrix(-0.831 -0.5562 0.5562 -0.831 491.0604 471.3969)" class="st19" width="5.4" height="67.1"/></g></g><g><g><defs><path id="SVGID_35_" d="M279.7 178.3l29.9-39.1 46.1 16.9c2.2 0.8 4.2 2.2 6.1 3.9l55.4 48.3 -28.1 31.1 -45.1-45.7c-1.3-1.4-2.8-2.2-4.6-2.9L279.7 178.3z"/></defs><clipPath id="SVGID_36_"><use xlink:href="#SVGID_35_"/></clipPath><path class="st20" d="M335.8 176.7L335.8 176.7c2.6 1.9 5.8 1.9 7.2 0.4l18.8-24.4 -9.6-6.8 -18.8 24.2C331.9 171.9 333.1 174.9 335.8 176.7z"/></g></g><g><g><defs><path id="SVGID_37_" d="M425.6 114.4l33.3 36.4 -24.7 42.3c-1.3 2.2-3 3.8-4.9 5.4l-57.4 46 -25.6-33.2 53-36.3c1.6-0.9 2.8-2.3 3.7-4L425.6 114.4z"/></defs><clipPath id="SVGID_38_"><use xlink:href="#SVGID_37_"/></clipPath><rect x="351.3" y="202.1" transform="matrix(-0.7673 0.6413 -0.6413 -0.7673 803.3065 123.3485)" class="st21" width="55.8" height="10.6"/></g></g><g><g><defs><path id="SVGID_39_" d="M379.2 106.2l36.2 33.3 -21.1 44.3c-1.1 2.1-2.6 3.9-4.4 5.7l-53.3 50.6 -28.3-30.9 49.7-40.8c1.5-1 2.6-2.5 3.5-4.3L379.2 106.2z"/></defs><clipPath id="SVGID_40_"><use xlink:href="#SVGID_39_"/></clipPath><rect x="334.3" y="186.4" transform="matrix(-0.7393 0.6733 -0.6733 -0.7393 756.2161 82.046)" class="st22" width="55.8" height="1.9"/></g></g></g><g><g><path id="SVGID_11_" class="st1" d="M407.2 258.2l53.9-49.7 -5.4-5.8c-8.8-9.2-25.1-8.2-36.2 1.9l-33.7 31.1L407.2 258.2z"/></g><g><g><defs><path id="SVGID_41_" d="M406.1 206.7l45.1 57.9 6.2-5c9.9-8 10.3-24.4 1.1-36.2l-28.2-36.2L406.1 206.7z"/></defs><clipPath id="SVGID_42_"><use xlink:href="#SVGID_41_"/></clipPath><rect x="389" y="228.6" transform="matrix(-0.7359 0.6771 -0.6771 -0.7359 903.822 111.4318)" class="st23" width="82.3" height="6.8"/></g></g><g><g><defs><path id="SVGID_43_" d="M396.9 201.8l45.1 57.9 6.2-5c9.9-8 10.3-24.4 1.1-36.2l-28.2-36.2L396.9 201.8z"/></defs><clipPath id="SVGID_44_"><use xlink:href="#SVGID_43_"/></clipPath><rect x="386.8" y="224.1" transform="matrix(-0.7359 0.6771 -0.6771 -0.7359 895.4314 101.1228)" class="st24" width="82.3" height="2.2"/></g></g><g><g><defs><path id="SVGID_45_" d="M407.2 258.2l53.9-49.7 -5.4-5.8c-8.8-9.2-25.1-8.2-36.2 1.9l-33.7 31.1L407.2 258.2z"/></defs><clipPath id="SVGID_46_"><use xlink:href="#SVGID_45_"/></clipPath><path class="st25" d="M381.4 235.1c6 6.5 20.1 2.9 31.8-7.8 11.6-10.7 16.2-24.7 10.3-30.9 -6-6.5-20.1-2.9-31.8 7.8C380 214.9 375.4 228.8 381.4 235.1zM384.7 232c-4.9-5.4-1.1-16.9 8.6-25.9 9.6-8.9 21.6-11.8 26.6-6.5 4.9 5.4 1.1 16.9-8.6 25.9C401.6 234.4 389.6 237.5 384.7 232z"/></g></g></g><circle class="st11" cx="212.5" cy="55" r="2.8"/><circle class="st11" cx="218.4" cy="47.5" r="1.8"/><path class="st2" d="M245.6 128.1L245.6 128.1l3.9 5.8c5.6-3.9 20.8-18.7 20.8-18.7l-1.8-2.6L245.6 128.1z"/><path class="st2" d="M251.6 136.8L251.6 136.8l3.9 5.8c5.6-3.9 20.8-18.7 20.8-18.7l-1.8-2.6L251.6 136.8z"/><path class="st2" d="M312.7 82c-1.1 1.8-1.8 3.3-2.8 5.2 1.8 0.7 2.6 2.2 3.8 3.9 4.5 6.3 2.9 22.3-9.2 26.3 -27.3 9.3-43-14.2-43-14.2s-1.8 2.9-2.9 6.3c19.2 17.5 37.3 19.2 49.7 12 9.5-5.4 17.4-18.7 9.6-33.4C316.6 85.4 314.7 83.4 312.7 82z"/><path class="st2" d="M257.4 145.4L257.4 145.4l3.9 5.8c5.6-3.9 20.8-18.7 20.8-18.7l-1.8-2.6L257.4 145.4z"/></g></svg>