<svg xmlns="http://www.w3.org/2000/svg" version="1.1" x="0" y="0" viewBox="-19 46 260 165" xml:space="preserve"><style type="text/css">
	.st0{fill:#F0F0FA;}
	.st1{fill:#DCDCE6;}
</style><rect x="-19" y="46" class="st0" width="260" height="165"/><path class="st1" d="M144.3 105.9l-3.9-22.6L61.1 97.2l11.6 66.2 7.9-1.3v5.7h80.5v-61.9H144.3zM80.6 155.4l-2.5 0.5 -9.4-53.4 66.5-11.7 2.7 15.1H80.6V155.4zM154.6 161.2H87.2v-48.8h67.4V161.2zM91.5 116.8V153l13.7-9.1 8.5 5.3 20.6-22.6 2.7 1.1 13.3 15.4v-26.3H91.5L91.5 116.8zM104.6 132.4c-3.1 0-5.8-2.7-5.8-5.8 0-3.1 2.7-5.8 5.8-5.8 3.1 0 5.8 2.7 5.8 5.8C110.4 129.7 107.7 132.4 104.6 132.4z"/></svg>