<svg xmlns="http://www.w3.org/2000/svg" version="1.1" x="0" y="0" viewBox="0 0 393 48" xml:space="preserve"><style type="text/css">
	.st0{fill:#374b64;}
	.st1{fill:#6987A5;}
</style><path class="st0" d="M0 2.4c2.6-0.4 6.3-0.7 10.6-0.7 5.2 0 8.9 0.8 11.4 2.8 2.1 1.7 3.3 4.2 3.3 7.4 0 4.4-3.2 7.5-6.2 8.6v0.2c2.5 1 3.8 3.3 4.7 6.5 1.1 4 2.1 8.6 2.8 10h-8.1c-0.5-1-1.4-3.9-2.4-8.2 -1-4.4-2.5-5.6-5.8-5.6H7.9v13.8H0V2.4zM7.9 17.5H11c4 0 6.3-2 6.3-5.1 0-3.2-2.2-4.9-5.8-4.9 -1.9 0-3 0.1-3.6 0.3V17.5zM35.5 26.8c0.2 3.3 3.5 4.9 7.2 4.9 2.7 0 4.9-0.4 7.1-1.1l1 5.4c-2.6 1.1-5.8 1.6-9.2 1.6 -8.7 0-13.6-5-13.6-13 0-6.5 4-13.6 12.9-13.6 8.3 0 11.4 6.4 11.4 12.7 0 1.4-0.2 2.6-0.3 3.1H35.5zM44.9 21.4c0-1.9-0.8-5.2-4.5-5.2 -3.3 0-4.7 3.1-4.9 5.2H44.9zM55.6 30.2c1.5 0.9 4.5 1.9 6.8 1.9 2.4 0 3.4-0.8 3.4-2.1 0-1.4-0.8-2-3.7-3 -5.3-1.8-7.4-4.6-7.3-7.7 0-4.8 4.1-8.4 10.4-8.4 3 0 5.6 0.7 7.2 1.5L71 17.9c-1.1-0.6-3.4-1.5-5.5-1.5 -1.9 0-3 0.8-3 2 0 1.3 1 1.9 4.1 3 4.9 1.7 6.8 4.2 6.9 7.9 0 4.8-3.7 8.3-11 8.3 -3.3 0-6.3-0.8-8.3-1.8L55.6 30.2zM101.1 28.9c0 3.3 0.1 6.1 0.2 8.2h-6.9l-0.4-3.6h-0.2c-1 1.6-3.4 4.2-8 4.2 -5.2 0-9-3.2-9-11.1v-15h7.9v13.7c0 3.7 1.2 6 4 6 2.2 0 3.5-1.5 4-2.8 0.2-0.5 0.3-1 0.3-1.7V11.5h7.9V28.9zM106.2 0h7.9v37.1h-7.9V0zM128.1 4.6v6.9h5.7v5.8h-5.7v9.2c0 3.1 0.8 4.5 3.1 4.5 1.1 0 1.6-0.1 2.4-0.2l0.1 6c-1 0.4-2.9 0.7-5.1 0.7 -2.6 0-4.7-0.9-6-2.2 -1.5-1.5-2.2-4-2.2-7.6V17.4H117v-5.8h3.4V6.8L128.1 4.6zM158.4 30.9c0 2.4 0.1 4.8 0.4 6.2h-7.2l-0.5-2.6H151c-1.7 2-4.3 3.1-7.3 3.1 -5.2 0-8.3-3.8-8.3-7.8 0-6.6 6-9.8 15-9.8v-0.3c0-1.4-0.7-3.3-4.6-3.3 -2.6 0-5.4 0.9-7.1 1.9l-1.5-5.1c1.8-1 5.3-2.3 9.9-2.3 8.5 0 11.2 5 11.2 11.1V30.9zM150.7 25c-4.2 0-7.4 1-7.4 4 0 2 1.4 3 3.1 3 1.9 0 3.6-1.3 4.1-2.9 0.1-0.4 0.2-0.9 0.2-1.4V25zM188.2 0v29.5c0 2.9 0.1 5.9 0.2 7.6h-7.1l-0.3-3.7h-0.2c-1.6 2.8-4.7 4.3-8 4.3 -6.1 0-10.9-5.2-10.9-13.1 -0.1-8.6 5.3-13.6 11.4-13.6 3.2 0 5.6 1.1 6.7 2.9h0.1V0H188.2zM180.2 22.4c0-0.4 0-1-0.1-1.5 -0.5-2.1-2.2-3.9-4.6-3.9 -3.7 0-5.5 3.2-5.5 7.3 0 4.3 2.1 7.1 5.4 7.1 2.3 0 4.2-1.6 4.6-3.8 0.1-0.6 0.2-1.2 0.2-1.8V22.4zM218.5 24c0 9.3-6.6 13.6-13.5 13.6 -7.5 0-13.2-4.9-13.2-13.2 0-8.3 5.4-13.6 13.7-13.6C213.2 10.9 218.5 16.3 218.5 24zM200 24.3c0 4.4 1.8 7.7 5.2 7.7 3.1 0 5.1-3.1 5.1-7.7 0-3.8-1.5-7.6-5.1-7.6C201.4 16.6 200 20.5 200 24.3zM222 30.2c1.5 0.9 4.5 1.9 6.8 1.9 2.4 0 3.4-0.8 3.4-2.1 0-1.4-0.8-2-3.7-3 -5.3-1.8-7.4-4.6-7.3-7.7 0-4.8 4.1-8.4 10.4-8.4 3 0 5.6 0.7 7.2 1.5l-1.4 5.5c-1.2-0.6-3.4-1.5-5.5-1.5 -1.9 0-3 0.8-3 2 0 1.3 1 1.9 4.1 3 4.9 1.7 6.8 4.2 6.9 7.9 0 4.8-3.7 8.3-11 8.3 -3.3 0-6.3-0.8-8.3-1.8L222 30.2z"/><path class="st1" d="M244.2 2.4c2.8-0.5 6.1-0.8 9.7-0.8 6.5 0 11.2 1.6 14.3 4.4 3.2 2.9 5 6.9 5 12.6 0 5.7-1.8 10.4-5.1 13.7 -3.3 3.3-8.8 5.1-15.6 5.1 -3.3 0-6-0.2-8.3-0.4V2.4zM248.8 33.5c1.1 0.2 2.8 0.2 4.6 0.2 9.8 0 15-5.4 15-14.9 0.1-8.3-4.6-13.6-14.3-13.6 -2.4 0-4.1 0.2-5.3 0.5V33.5zM282.7 4.7c0 1.6-1.1 2.8-2.9 2.8 -1.7 0-2.8-1.3-2.8-2.8 0-1.6 1.1-2.9 2.9-2.9C281.5 1.8 282.7 3.1 282.7 4.7zM277.5 37.1V11.8h4.6v25.3H277.5zM310.1 33.4c0 5.8-1.2 9.3-3.6 11.6 -2.5 2.2-6.1 3-9.2 3 -3 0-6.4-0.7-8.4-2.1l1.2-3.6c1.7 1.1 4.3 2 7.4 2 4.7 0 8.1-2.5 8.1-8.9v-2.8h-0.1c-1.4 2.4-4.1 4.2-8 4.2 -6.3 0-10.8-5.3-10.8-12.3 0-8.6 5.6-13.4 11.4-13.4 4.4 0 6.7 2.2 7.9 4.3h0.1l0.2-3.8h4.1c-0.2 1.8-0.2 3.9-0.2 6.9V33.4zM305.5 21.8c0-0.8-0.1-1.5-0.3-2 -0.8-2.7-3-4.9-6.4-4.9 -4.4 0-7.5 3.7-7.5 9.6 0 5 2.6 9.1 7.5 9.1 2.9 0 5.4-1.8 6.4-4.7 0.3-0.8 0.4-1.7 0.4-2.5V21.8zM321.2 4.7c0 1.6-1.1 2.8-2.9 2.8 -1.7 0-2.8-1.3-2.8-2.8 0-1.6 1.2-2.9 2.9-2.9C320 1.8 321.2 3.1 321.2 4.7zM316 37.1V11.8h4.6v25.3H316zM332.5 5.7v6.1h6.6v3.5h-6.6v13.6c0 3.1 0.9 4.9 3.4 4.9 1.3 0 2-0.1 2.7-0.3l0.2 3.5c-0.9 0.3-2.3 0.6-4.1 0.6 -2.1 0-3.9-0.7-5-1.9 -1.3-1.4-1.8-3.7-1.8-6.6V15.3h-3.9v-3.5h3.9V7.1L332.5 5.7zM360.7 31c0 2.2 0.1 4.3 0.4 6.1h-4.1l-0.4-3.2h-0.2c-1.4 2-4.1 3.8-7.7 3.8 -5.1 0-7.7-3.6-7.7-7.3 0-6.1 5.4-9.5 15.2-9.4v-0.5c0-2-0.6-5.8-5.7-5.8 -2.4 0-4.9 0.7-6.6 1.9l-1-3.1c2.1-1.3 5.2-2.2 8.4-2.2 7.7 0 9.6 5.3 9.6 10.3V31zM356.3 24.2c-5-0.1-10.7 0.8-10.7 5.7 0 3 2 4.4 4.3 4.4 3.3 0 5.5-2.1 6.2-4.2 0.2-0.5 0.2-1 0.2-1.5V24.2zM371.9 4.7c0 1.6-1.1 2.8-2.9 2.8 -1.7 0-2.8-1.3-2.8-2.8 0-1.6 1.1-2.9 2.9-2.9C370.8 1.8 371.9 3.1 371.9 4.7zM366.8 37.1V11.8h4.6v25.3H366.8zM377.1 32.4c1.4 0.8 3.8 1.8 6.1 1.8 3.3 0 4.9-1.6 4.9-3.8 0-2.2-1.3-3.3-4.7-4.6 -4.6-1.7-6.7-4.1-6.7-7.2 0-4.1 3.3-7.4 8.7-7.4 2.6 0 4.8 0.7 6.2 1.6l-1.1 3.3c-1-0.6-2.8-1.5-5.2-1.5 -2.7 0-4.2 1.6-4.2 3.4 0 2.1 1.5 3 4.8 4.3 4.3 1.6 6.6 3.8 6.6 7.6 0 4.5-3.5 7.6-9.4 7.6 -2.8 0-5.3-0.7-7.1-1.8L377.1 32.4z"/></svg>