<svg xmlns="http://www.w3.org/2000/svg" version="1.1" x="0" y="0" viewBox="0 0 190 24" xml:space="preserve"><style type="text/css">
	.st0{fill:#FFFFFF;}
</style><path class="st0" d="M0 1.1c1.2-0.2 3.1-0.4 5.1-0.4 2.5 0 4.3 0.4 5.5 1.3 1 0.8 1.6 2 1.6 3.6 0 2.1-1.5 3.6-3 4.2V10c1.2 0.5 1.8 1.6 2.3 3.2 0.5 1.9 1 4.2 1.4 4.8H8.9c-0.3-0.5-0.7-1.9-1.2-4 -0.5-2.1-1.2-2.7-2.8-2.7H3.8V18H0V1.1zM3.8 8.5h1.5c1.9 0 3.1-1 3.1-2.5 0-1.5-1.1-2.4-2.8-2.4 -0.9 0-1.5 0.1-1.7 0.1V8.5zM17.2 13c0.1 1.6 1.7 2.4 3.5 2.4 1.3 0 2.4-0.2 3.4-0.5l0.5 2.6c-1.3 0.5-2.8 0.8-4.5 0.8 -4.2 0-6.6-2.4-6.6-6.3 0-3.1 1.9-6.6 6.2-6.6 4 0 5.5 3.1 5.5 6.2 0 0.7-0.1 1.2-0.1 1.5H17.2zM21.7 10.4c0-0.9-0.4-2.5-2.2-2.5 -1.6 0-2.3 1.5-2.4 2.5H21.7zM26.9 14.6c0.7 0.4 2.2 0.9 3.3 0.9 1.2 0 1.6-0.4 1.6-1 0-0.7-0.4-1-1.8-1.4 -2.6-0.9-3.6-2.3-3.5-3.7 0-2.3 2-4.1 5-4.1C33 5.3 34.3 5.6 35 6l-0.7 2.7C33.8 8.4 32.7 8 31.7 8c-0.9 0-1.5 0.4-1.5 1 0 0.6 0.5 0.9 2 1.4 2.4 0.8 3.3 2 3.3 3.8 0 2.3-1.8 4-5.3 4 -1.6 0-3.1-0.4-4-0.9L26.9 14.6zM49 14c0 1.6 0.1 2.9 0.1 4h-3.3l-0.2-1.7h-0.1c-0.5 0.8-1.6 2-3.9 2 -2.5 0-4.3-1.6-4.3-5.4V5.6h3.8v6.6c0 1.8 0.6 2.9 1.9 2.9 1.1 0 1.7-0.7 1.9-1.3 0.1-0.2 0.2-0.5 0.2-0.8V5.6H49V14zM51.4 0h3.8v18h-3.8V0zM62 2.3v3.3h2.8v2.8H62v4.5c0 1.5 0.4 2.2 1.5 2.2 0.5 0 0.8 0 1.1-0.1l0 2.9c-0.5 0.2-1.4 0.3-2.5 0.3 -1.2 0-2.3-0.4-2.9-1.1 -0.7-0.7-1.1-1.9-1.1-3.7V8.4h-1.6V5.6h1.6V3.3L62 2.3zM76.7 15c0 1.2 0.1 2.3 0.2 3h-3.5l-0.2-1.2h-0.1c-0.8 1-2.1 1.5-3.5 1.5 -2.5 0-4-1.8-4-3.8 0-3.2 2.9-4.7 7.3-4.7V9.6c0-0.7-0.4-1.6-2.3-1.6 -1.3 0-2.6 0.4-3.4 0.9l-0.7-2.5c0.9-0.5 2.6-1.1 4.8-1.1 4.1 0 5.4 2.4 5.4 5.4V15zM73 12.1c-2 0-3.6 0.5-3.6 1.9 0 1 0.7 1.5 1.5 1.5 0.9 0 1.7-0.6 2-1.4 0.1-0.2 0.1-0.4 0.1-0.7V12.1zM91.1 0v14.3c0 1.4 0.1 2.9 0.1 3.7h-3.4l-0.2-1.8h-0.1c-0.8 1.4-2.3 2.1-3.9 2.1 -2.9 0-5.3-2.5-5.3-6.3 0-4.2 2.6-6.6 5.5-6.6 1.5 0 2.7 0.6 3.3 1.4h0.1V0H91.1zM87.2 10.8c0-0.2 0-0.5-0.1-0.7 -0.2-1-1.1-1.9-2.3-1.9 -1.8 0-2.7 1.6-2.7 3.5 0 2.1 1 3.4 2.6 3.4 1.1 0 2-0.8 2.3-1.8 0.1-0.3 0.1-0.6 0.1-0.9V10.8zM105.7 11.6c0 4.5-3.2 6.6-6.5 6.6 -3.6 0-6.4-2.4-6.4-6.4 0-4 2.6-6.6 6.6-6.6C103.2 5.3 105.7 7.9 105.7 11.6zM96.8 11.8c0 2.1 0.9 3.7 2.5 3.7 1.5 0 2.5-1.5 2.5-3.7 0-1.8-0.7-3.7-2.5-3.7C97.5 8 96.8 9.9 96.8 11.8zM107.5 14.6c0.7 0.4 2.2 0.9 3.3 0.9 1.2 0 1.6-0.4 1.6-1 0-0.7-0.4-1-1.8-1.4 -2.6-0.9-3.6-2.3-3.5-3.7 0-2.3 2-4.1 5-4.1 1.4 0 2.7 0.4 3.5 0.7l-0.7 2.7c-0.6-0.3-1.6-0.7-2.7-0.7 -0.9 0-1.5 0.4-1.5 1 0 0.6 0.5 0.9 2 1.4 2.4 0.8 3.3 2 3.3 3.8 0 2.3-1.8 4-5.3 4 -1.6 0-3.1-0.4-4-0.9L107.5 14.6z"/><path class="st0" d="M118.2 1.2c1.3-0.2 2.9-0.4 4.7-0.4 3.2 0 5.4 0.8 6.9 2.1 1.5 1.4 2.4 3.4 2.4 6.1 0 2.8-0.9 5.1-2.5 6.6 -1.6 1.6-4.2 2.5-7.6 2.5 -1.6 0-2.9-0.1-4-0.2V1.2zM120.4 16.2c0.6 0.1 1.4 0.1 2.2 0.1 4.7 0 7.3-2.6 7.3-7.2 0-4-2.2-6.6-6.9-6.6 -1.1 0-2 0.1-2.6 0.2V16.2zM136.8 2.3c0 0.8-0.5 1.4-1.4 1.4 -0.8 0-1.3-0.6-1.3-1.4 0-0.8 0.6-1.4 1.4-1.4C136.3 0.9 136.8 1.5 136.8 2.3zM134.3 18V5.7h2.2V18H134.3zM150.1 16.2c0 2.8-0.6 4.5-1.7 5.6 -1.2 1.1-2.9 1.5-4.5 1.5 -1.5 0-3.1-0.4-4.1-1l0.6-1.7c0.8 0.5 2.1 1 3.6 1 2.3 0 3.9-1.2 3.9-4.3v-1.3h-0.1c-0.7 1.1-2 2-3.9 2 -3 0-5.2-2.6-5.2-6 0-4.1 2.7-6.5 5.5-6.5 2.1 0 3.3 1.1 3.8 2.1h0.1l0.1-1.8h2c-0.1 0.9-0.1 1.9-0.1 3.3V16.2zM147.9 10.5c0-0.4 0-0.7-0.1-1 -0.4-1.3-1.5-2.4-3.1-2.4 -2.1 0-3.6 1.8-3.6 4.6 0 2.4 1.2 4.4 3.6 4.4 1.4 0 2.6-0.9 3.1-2.3 0.1-0.4 0.2-0.8 0.2-1.2V10.5zM155.5 2.3c0 0.8-0.5 1.4-1.4 1.4 -0.8 0-1.3-0.6-1.3-1.4 0-0.8 0.6-1.4 1.4-1.4C154.9 0.9 155.5 1.5 155.5 2.3zM153 18V5.7h2.2V18H153zM160.9 2.8v2.9h3.2v1.7h-3.2V14c0 1.5 0.4 2.4 1.7 2.4 0.6 0 1-0.1 1.3-0.2l0.1 1.7c-0.4 0.2-1.1 0.3-2 0.3 -1 0-1.9-0.4-2.4-0.9 -0.6-0.7-0.9-1.8-0.9-3.2V7.4h-1.9V5.7h1.9V3.4L160.9 2.8zM174.6 15c0 1.1 0.1 2.1 0.2 2.9h-2l-0.2-1.5h-0.1c-0.7 1-2 1.8-3.7 1.8 -2.5 0-3.7-1.7-3.7-3.5 0-3 2.6-4.6 7.4-4.6V9.9c0-1-0.3-2.8-2.8-2.8 -1.2 0-2.4 0.3-3.2 0.9l-0.5-1.5c1-0.6 2.5-1.1 4-1.1 3.7 0 4.7 2.6 4.7 5V15zM172.5 11.7c-2.4-0.1-5.2 0.4-5.2 2.8 0 1.5 1 2.1 2.1 2.1 1.6 0 2.7-1 3-2 0.1-0.3 0.1-0.5 0.1-0.7V11.7zM180 2.3c0 0.8-0.5 1.4-1.4 1.4 -0.8 0-1.3-0.6-1.3-1.4 0-0.8 0.6-1.4 1.4-1.4C179.5 0.9 180 1.5 180 2.3zM177.6 18V5.7h2.2V18H177.6zM182.5 15.7c0.7 0.4 1.8 0.9 3 0.9 1.6 0 2.4-0.8 2.4-1.8 0-1.1-0.6-1.6-2.3-2.2 -2.2-0.8-3.3-2-3.3-3.5 0-2 1.6-3.6 4.2-3.6 1.2 0 2.3 0.3 3 0.8L189 7.8c-0.5-0.3-1.4-0.7-2.5-0.7 -1.3 0-2 0.8-2 1.7 0 1 0.7 1.5 2.3 2.1 2.1 0.8 3.2 1.8 3.2 3.7 0 2.2-1.7 3.7-4.6 3.7 -1.3 0-2.6-0.4-3.4-0.9L182.5 15.7z"/></svg>